<svg width="320" height="384" viewBox="0 0 320 384" fill="none" xmlns="http://www.w3.org/2000/svg">
<path d="M120.846 276.819C120.846 272.58 124.288 269.143 128.534 269.143C132.779 269.143 136.221 272.58 136.221 276.82V297.93C136.221 302.17 132.779 305.607 128.534 305.607C124.288 305.607 120.846 302.17 120.846 297.93V276.819Z" fill="#FF3333"/>
<path d="M152.557 264.345C152.557 260.106 155.999 256.669 160.245 256.669C164.49 256.669 167.932 260.106 167.932 264.345V312.323C167.932 316.563 164.49 320 160.245 320C155.999 320 152.557 316.563 152.557 312.323V264.345Z" fill="#FF3333"/>
<path d="M183.307 276.819C183.307 272.58 186.749 269.143 190.995 269.143C195.241 269.143 198.683 272.58 198.683 276.82V297.93C198.683 302.17 195.241 305.607 190.995 305.607C186.749 305.607 183.307 302.17 183.307 297.93V276.819Z" fill="#FF3333"/>
<path fill-rule="evenodd" clip-rule="evenodd" d="M143.401 72.5015C116.4 110.135 107.146 157.643 118.052 202.639L129.186 248.576C129.989 251.888 132.957 254.22 136.369 254.22C140.019 254.22 143.122 251.56 143.675 247.958L145.014 239.225C145.158 238.288 145.965 237.597 146.914 237.597H173.034C173.983 237.597 174.79 238.288 174.933 239.225L176.273 247.958C176.825 251.56 179.929 254.22 183.578 254.22C186.99 254.22 189.958 251.888 190.761 248.576L201.895 202.639C212.801 157.643 203.548 110.135 176.547 72.5015C168.414 61.1662 151.534 61.1662 143.401 72.5015ZM136.15 126.716L151.253 135.422V135.431C153.991 137.014 153.991 140.962 151.253 142.545L136.15 151.25C134.177 152.384 131.664 151.709 130.53 149.748C129.395 147.779 130.07 145.27 132.034 144.137L140.968 138.983L132.034 133.83C130.07 132.697 129.395 130.179 130.53 128.218C131.664 126.257 134.186 125.583 136.15 126.716ZM165.609 134.864H185.45C187.729 134.864 189.566 136.699 189.566 138.974C189.566 141.249 187.72 143.084 185.45 143.084H165.609C163.33 143.084 161.493 141.249 161.493 138.974C161.493 136.699 163.339 134.864 165.609 134.864Z" fill="#010101"/>
<path d="M89.4796 224.463L105.766 195.035C106.685 193.374 109.203 193.911 109.363 195.802L111.619 222.463C111.677 223.145 111.367 223.805 110.806 224.197L96.6582 234.087C94.5691 235.547 91.6612 234.608 90.8235 232.203L89.2133 227.581C88.8547 226.551 88.9514 225.418 89.4796 224.463Z" fill="#010101"/>
<path d="M230.52 224.463L214.234 195.035C213.315 193.374 210.797 193.911 210.637 195.802L208.381 222.463C208.323 223.145 208.633 223.805 209.194 224.197L223.342 234.087C225.431 235.547 228.339 234.608 229.177 232.203L230.787 227.581C231.145 226.551 231.049 225.418 230.52 224.463Z" fill="#010101"/>
</svg>
